<?xml version="1.0" encoding="UTF-8"?>
<svg width="360px" height="360px" viewBox="0 0 360 360" version="1.1" xmlns="http://www.w3.org/2000/svg" xmlns:xlink="http://www.w3.org/1999/xlink">
    <!-- Generator: Sketch 57.1 (83088) - https://sketch.com -->
    <title>DRY Logo 360 Black@2x</title>
    <desc>Created with Sketch.</desc>
    <g id="DRY-Logo-360-Black" stroke="none" stroke-width="1" fill="none" fill-rule="evenodd">
        <!-- transparent background -->
        <g id="Linjer-1" transform="translate(102.000000, 55.000000)" fill="#EB6739" fill-rule="nonzero">
            <path d="M79,-3.37056771e-15 L79,0.008 L80,-3.37056771e-15 C148.483309,-3.37056771e-15 204,55.516691 204,124 C204,192.483309 148.483309,248 80,248 C75.6092533,248 71.2718075,247.771792 66.9988765,247.32659 L66.9989073,237.266768 C71.2656044,237.75115 75.6037412,238 80,238 C142.960461,238 194,186.960461 194,124 C194,61.0395385 142.960461,10 80,10 C79.6658355,10 79.3320068,10.0014378 78.9985198,10.0043075 L78.998,10 L0,10 L0,-3.37056771e-15 L79,-3.37056771e-15 Z" id="Combined-Shape"></path>
            <path d="M47,228 L47,218 L78.999,218 L78.9993704,217.992 L80,218 C131.395619,218 173.157312,176.752263 173.987407,125.554462 L174,124 C174,72.0852335 131.914766,30 80,30 C79.665713,30 79.3318336,30.001745 78.9983704,30.0052263 L78.998,30 L37,30 L37,20 L79,20 L79,20.008 L80,20 C137.437614,20 184,66.562386 184,124 C184,181.10348 137.977776,227.457894 81.0012905,227.99528 L81,228 L80,228 L80,228 L47,228 Z" id="Combined-Shape"></path>
            <path d="M42,208 L42,198 L81,198 C121.869071,198 155,164.869071 155,124 C155,83.5396192 122.528377,50.6633924 82.2237253,50.0099139 L81,50 L40,50 L40,40 L81,40 C127.391919,40 165,77.608081 165,124 C165,169.928 128.14032,207.24696 82.3890936,207.988746 L81,208 L42,208 Z" id="Combined-Shape"></path>
            <path d="M40,188 L40,178 L81,178 C110.823376,178 135,153.823376 135,124 C135,94.4748573 111.304491,70.4840971 81.8929887,70.0072345 L81,70 L40,70 L40,60 L81,60 C116.346224,60 145,88.653776 145,124 C145,158.992762 116.916434,187.426255 82.058357,187.991426 L81,188 L40,188 Z" id="Combined-Shape"></path>
            <path d="M40,168 L40,158 L81,158 C99.7776815,158 115,142.777681 115,124 C115,105.410095 100.080606,90.3048019 81.5622522,90.004555 L81,90 L40,90 L40,80 L81,80 C105.300529,80 125,99.699471 125,124 C125,148.057524 105.692548,167.60555 81.7276205,167.994105 L81,168 L40,168 Z" id="Combined-Shape"></path>
        </g>
        <g id="Cirklar-1" transform="translate(183.000000, 135.000000)"></g>
        <path d="M77.0033493,99.5865793 C77.224119,85.9701429 88.3309524,75 102,75 C115.669048,75 126.775881,85.9701429 126.996651,99.5865793 L127,100 L127,249.83739 C127,250.398405 127.007123,250.956597 127.021224,251.511789 C127.007395,252.11773 127,252.726457 127,253.33739 C127,275.169163 136.443299,294.184239 150.30504,302.020752 C131.185548,299.121776 117,276.595177 117,249.83739 C117,249.557789 117.001549,249.278649 117.004636,248.999989 L117,249 L117,100 C117,91.7157288 110.284271,85 102,85 C93.8205929,85 87.1702698,91.5467864 87.0032178,99.6861718 L87,100 L87,249.83739 C87,250.398405 87.0071225,250.956597 87.0212244,251.511789 C87.0073949,252.11773 87,252.726457 87,253.33739 C87,275.169163 96.4432991,294.184239 110.30504,302.020752 C91.1855484,299.121776 77,276.595177 77,249.83739 C77,249.557789 77.0015489,249.278649 77.0046362,248.999989 L77,249 L77,100 L77.0033493,99.5865793 Z" id="Combined-Shape" fill="#86385B" fill-rule="nonzero"></path>
        <path d="M102,95 C104.688755,95 106.881818,97.1223067 106.99538,99.7831104 L107,100 L107,249 L106.999,249 L107,249.83739 C107,250.398405 107.007123,250.956597 107.021224,251.511789 C107.007395,252.11773 107,252.726457 107,253.33739 C107,275.169163 116.443299,294.184239 130.30504,302.020752 C111.185548,299.121776 97,276.595177 97,249.83739 C97,249.557789 97.0015489,249.278649 97.0046362,248.999989 L97,249 L97,100 L97.0046195,99.7831104 C97.1181819,97.1223067 99.3112453,95 102,95 Z" id="Combined-Shape" fill="#86385B" fill-rule="nonzero"></path>
        <path d="M102,55 C126.604286,55 146.596586,74.8142782 146.993971,99.4082932 L147,100.155014 L147,250.671727 L147,250.5 C147,268.3016 154.171378,283.261881 163.940213,289.66319 L163.928712,289.662429 C163.95267,289.675456 163.976632,289.688476 164.000599,289.701489 C165.244656,290.512497 166.531103,291.183872 167.850038,291.704659 C177.148102,296.338228 187.111031,299.838671 197.557111,302.024855 C192.875154,302.598049 188.114659,302.9234 183.290456,302.988016 L182,303 L174.579,302.999 L174.5,303 L174.460439,302.999972 L174,303 C153.083682,302.625338 137.064036,279.049099 137.000192,250.67027 L137,100.155014 C137,80.7584607 121.329966,65.0344475 102,65.0344475 C82.8633334,65.0344475 67.3137667,80.4455528 67.004689,99.5742311 L67,100.155014 L67,249.668282 L66.999,249.668 L67,250.508557 C67,251.071394 67.0071197,251.631401 67.0212161,252.188398 C67.0073999,252.796344 67,253.407371 67,254.020614 C67,275.927591 76.4432991,295.00817 90.3050401,302.871678 C71.1855484,299.962715 57,277.358518 57,250.508557 C57,250.228084 57.0015479,249.948075 57.0046331,249.668546 L57,249.668282 L57,100.155014 L57.0060287,99.4082932 C57.4034143,74.8142782 77.3957144,55 102,55 Z" id="Combined-Shape" fill="#86385B" fill-rule="nonzero"></path>
    </g>
</svg>